<svg aria-hidden="true" style="position: absolute; width: 0; height: 0; overflow: hidden;" version="1.1" xmlns="http://www.w3.org/2000/svg" xmlns:xlink="http://www.w3.org/1999/xlink">
<defs>
<symbol id="icon-arrow-right" viewBox="0 0 15 32">
<path fill="#fff" style="fill: var(--color1, #fff)" d="M13.281 17.006l-8.053 8.053c-0.557 0.557-1.457 0.557-2.007 0l-1.338-1.338c-0.557-0.557-0.557-1.457 0-2.007l5.708-5.708-5.708-5.708c-0.557-0.557-0.557-1.457 0-2.007l1.332-1.35c0.557-0.557 1.457-0.557 2.007 0l8.053 8.053c0.563 0.557 0.563 1.457 0.006 2.013z"></path>
</symbol>
<symbol id="icon-logo-book" viewBox="0 0 36 32">
<path fill="#28a745" style="fill: var(--color2, #28a745)" d="M32.891 2.392c-3.324 0.189-9.931 0.877-14.010 3.378-0.282 0.173-0.441 0.479-0.441 0.8v22.11c0 0.702 0.766 1.145 1.412 0.82 4.196-2.116 10.265-2.693 13.266-2.851 1.025-0.054 1.821-0.877 1.821-1.863v-20.529c0.001-1.076-0.931-1.929-2.048-1.865zM16.058 5.77c-4.078-2.501-10.685-3.188-14.009-3.378-1.117-0.063-2.049 0.789-2.049 1.865v20.529c0 0.987 0.796 1.809 1.821 1.863 3.002 0.158 9.074 0.736 13.271 2.853 0.644 0.325 1.408-0.118 1.408-0.818v-22.125c0-0.321-0.159-0.616-0.441-0.789z"></path>
</symbol>
<symbol id="icon-facebook" viewBox="0 0 24 24">
<path d="M21.984 12q0-2.063-0.773-3.867t-2.156-3.188-3.188-2.156-3.867-0.773-3.867 0.773-3.188 2.156-2.156 3.188-0.773 3.867q0 1.828 0.586 3.445t1.688 2.93 2.555 2.203 3.141 1.219v-6.797h-1.969v-3h1.969v-2.484q0-0.984 0.492-1.781t1.266-1.266 1.758-0.469h2.484v3h-1.969q-0.422 0-0.727 0.305t-0.305 0.68v2.016h3v3h-3v6.938q1.922-0.188 3.563-1.031t2.859-2.18 1.898-3.047 0.68-3.68z"></path>
</symbol>
<symbol id="icon-twitter" viewBox="0 0 32 32">
<path d="M32 7.075c-1.175 0.525-2.444 0.875-3.769 1.031 1.356-0.813 2.394-2.1 2.887-3.631-1.269 0.75-2.675 1.3-4.169 1.594-1.2-1.275-2.906-2.069-4.794-2.069-3.625 0-6.563 2.938-6.563 6.563 0 0.512 0.056 1.012 0.169 1.494-5.456-0.275-10.294-2.888-13.531-6.862-0.563 0.969-0.887 2.1-0.887 3.3 0 2.275 1.156 4.287 2.919 5.463-1.075-0.031-2.087-0.331-2.975-0.819 0 0.025 0 0.056 0 0.081 0 3.181 2.263 5.838 5.269 6.437-0.55 0.15-1.131 0.231-1.731 0.231-0.425 0-0.831-0.044-1.237-0.119 0.838 2.606 3.263 4.506 6.131 4.563-2.25 1.762-5.075 2.813-8.156 2.813-0.531 0-1.050-0.031-1.569-0.094 2.913 1.869 6.362 2.95 10.069 2.95 12.075 0 18.681-10.006 18.681-18.681 0-0.287-0.006-0.569-0.019-0.85 1.281-0.919 2.394-2.075 3.275-3.394z"></path>
</symbol>
<symbol id="icon-youtube" viewBox="0 0 32 32">
<path d="M31.681 9.6c0 0-0.313-2.206-1.275-3.175-1.219-1.275-2.581-1.281-3.206-1.356-4.475-0.325-11.194-0.325-11.194-0.325h-0.012c0 0-6.719 0-11.194 0.325-0.625 0.075-1.987 0.081-3.206 1.356-0.963 0.969-1.269 3.175-1.269 3.175s-0.319 2.588-0.319 5.181v2.425c0 2.587 0.319 5.181 0.319 5.181s0.313 2.206 1.269 3.175c1.219 1.275 2.819 1.231 3.531 1.369 2.563 0.244 10.881 0.319 10.881 0.319s6.725-0.012 11.2-0.331c0.625-0.075 1.988-0.081 3.206-1.356 0.962-0.969 1.275-3.175 1.275-3.175s0.319-2.587 0.319-5.181v-2.425c-0.006-2.588-0.325-5.181-0.325-5.181zM12.694 20.15v-8.994l8.644 4.513-8.644 4.481z"></path>
</symbol>
<symbol id="icon-linkedin" viewBox="0 0 24 28">
<path d="M5.453 9.766v15.484h-5.156v-15.484h5.156zM5.781 4.984c0.016 1.484-1.109 2.672-2.906 2.672v0h-0.031c-1.734 0-2.844-1.188-2.844-2.672 0-1.516 1.156-2.672 2.906-2.672 1.766 0 2.859 1.156 2.875 2.672zM24 16.375v8.875h-5.141v-8.281c0-2.078-0.75-3.5-2.609-3.5-1.422 0-2.266 0.953-2.641 1.875-0.125 0.344-0.172 0.797-0.172 1.266v8.641h-5.141c0.063-14.031 0-15.484 0-15.484h5.141v2.25h-0.031c0.672-1.062 1.891-2.609 4.672-2.609 3.391 0 5.922 2.219 5.922 6.969z"></path>
</symbol>
<symbol id="error-icon" viewBox="0 0 16 15" fill="none" xmlns="http://www.w3.org/2000/svg">
<path d="M13 11.04C13 11.352 12.8929 11.59 12.6788 11.754C12.4647 11.918 12.2019 12 11.8904 12H1.10961C0.798143 12 0.53534 11.916 0.321204 11.748C0.107068 11.58 0 11.344 0 11.04C0 10.8 0.0700809 10.556 0.210243 10.308L5.59479 0.66C5.85175 0.22 6.15544 0 6.50584 0C6.85624 0 7.15214 0.22 7.39353 0.66L12.7898 10.32C12.9299 10.576 13 10.816 13 11.04ZM7.31177 4.908V3.156H5.68823V4.908C5.68823 5.02 5.69602 5.126 5.71159 5.226C5.72716 5.326 5.74858 5.438 5.77583 5.562C5.80308 5.686 5.8245 5.792 5.84007 5.88L6.14376 7.824H6.83288L7.14825 5.88C7.16382 5.8 7.18718 5.696 7.21833 5.568C7.24948 5.44 7.27284 5.326 7.28841 5.226C7.30398 5.126 7.31177 5.02 7.31177 4.908ZM7.31177 9.552C7.31177 9.32 7.23196 9.124 7.07233 8.964C6.9127 8.804 6.71998 8.724 6.49416 8.724C6.27613 8.724 6.0873 8.804 5.92767 8.964C5.76804 9.124 5.68823 9.32 5.68823 9.552C5.68823 9.784 5.76804 9.982 5.92767 10.146C6.0873 10.31 6.27613 10.392 6.49416 10.392C6.71998 10.392 6.9127 10.31 7.07233 10.146C7.23196 9.982 7.31177 9.784 7.31177 9.552Z" fill="#EB5757"/>
</symbol>
</defs>
</svg>
